<svg id="svg" xmlns="http://www.w3.org/2000/svg" xmlns:xlink="http://www.w3.org/1999/xlink" width="400" height="400" viewBox="0, 0, 400,400"><g id="svgg"><path id="path0" d="M91.406 15.901 L 91.406 31.802 86.048 35.365 C -28.027 111.220,-27.773 287.060,86.523 364.786 L 91.406 368.106 91.406 384.053 L 91.406 400.000 200.000 400.000 L 308.594 400.000 308.594 384.026 L 308.594 368.052 312.917 365.183 C 427.010 289.452,428.165 112.270,315.061 36.234 L 308.594 31.886 308.594 15.943 L 308.594 0.000 200.000 0.000 L 91.406 0.000 91.406 15.901 M123.828 14.747 C 119.961 16.388,113.904 19.190,110.369 20.974 C 106.834 22.759,103.757 24.219,103.533 24.219 C 103.309 24.219,103.125 21.406,103.125 17.969 L 103.125 11.719 116.992 11.742 L 130.859 11.765 123.828 14.747 M230.859 13.972 C 251.318 17.642,269.063 23.653,287.109 33.025 L 296.484 37.894 296.484 200.002 L 296.484 362.109 284.763 367.969 C 229.413 395.639,166.157 395.114,112.109 366.536 L 103.516 361.992 103.516 199.941 L 103.516 37.891 112.891 33.034 C 125.650 26.425,139.713 20.949,152.344 17.671 C 161.369 15.329,166.708 14.332,181.641 12.201 C 188.872 11.170,221.849 12.356,230.859 13.972 M296.875 17.969 C 296.875 21.406,296.691 24.219,296.467 24.219 C 296.243 24.219,293.166 22.759,289.631 20.974 C 286.096 19.190,280.039 16.388,276.172 14.747 L 269.141 11.765 283.008 11.742 L 296.875 11.719 296.875 17.969 M91.406 200.040 L 91.406 353.987 83.688 348.043 C -4.944 279.782,-12.737 145.901,67.309 66.628 C 75.425 58.591,89.897 46.163,91.211 46.103 C 91.318 46.098,91.406 115.370,91.406 200.040 M317.188 52.527 C 412.241 126.032,411.158 275.534,315.039 349.075 L 308.594 354.006 308.594 199.954 C 308.594 76.836,308.790 46.052,309.570 46.647 C 310.107 47.057,313.535 49.703,317.188 52.527 M123.438 384.912 L 131.641 388.267 117.383 388.274 L 103.125 388.281 103.125 381.742 L 103.125 375.204 109.180 378.380 C 112.510 380.127,118.926 383.067,123.438 384.912 M296.875 381.641 L 296.875 388.281 282.617 388.252 L 268.359 388.222 274.219 385.906 C 278.577 384.183,291.456 377.991,296.680 375.108 C 296.787 375.049,296.875 377.988,296.875 381.641 " stroke="none" fill="#000000" fill-rule="evenodd"></path></g></svg>